<?xml version="1.0"?>
<svg xmlns="http://www.w3.org/2000/svg" id="_x33_0" enable-background="new 0 0 64 64" height="512px" viewBox="0 0 64 64" width="512px" class=""><g><g><path d="m13.27 28h1.46c1.803 0 3.27-1.467 3.27-3.27v-1.994c1.811-1.267 3-3.364 3-5.736 0-3.86-3.14-7-7-7s-7 3.14-7 7c0 2.373 1.189 4.47 3 5.736v1.994c0 1.803 1.467 3.27 3.27 3.27zm2.73-3.27c0 .7-.57 1.27-1.27 1.27h-1.46c-.7 0-1.27-.57-1.27-1.27v-1.025c.634.19 1.305.295 2 .295s1.366-.105 2-.295zm-3-7.73c0-.551.449-1 1-1s1 .449 1 1-.449 1-1 1-1-.449-1-1zm-4 0c0-2.757 2.243-5 5-5s5 2.243 5 5c0 2.414-1.721 4.434-4 4.899v-2.083c1.161-.414 2-1.514 2-2.816 0-1.654-1.346-3-3-3s-3 1.346-3 3c0 1.302.839 2.402 2 2.816v2.083c-2.279-.465-4-2.485-4-4.899z" data-original="#000000" class="active-path" data-old_color="#000000" fill="#1F77ED"/><path d="m42 17.302 5.417-4.514c1.006-.839 1.583-2.071 1.583-3.38 0-1.175-.458-2.279-1.297-3.119-.831-.831-1.936-1.289-3.111-1.289h-.185c-.866 0-1.696.25-2.407.716-.709-.466-1.539-.716-2.408-.716h-.185c-1.175 0-2.279.458-3.119 1.297-.83.831-1.288 1.936-1.288 3.111 0 1.31.577 2.542 1.583 3.379zm-4.289-9.599c.454-.453 1.056-.703 1.697-.703h.185c.641 0 1.243.25 1.701.707l.711.703.707-.707c.453-.453 1.055-.703 1.696-.703h.185c.641 0 1.243.25 1.705.711.452.454.702 1.056.702 1.697 0 .714-.314 1.386-.863 1.843l-4.137 3.447-4.137-3.448c-.549-.456-.863-1.128-.863-1.842 0-.641.25-1.243.711-1.705z" data-original="#000000" class="active-path" data-old_color="#000000" fill="#1F77ED"/><path d="m59 23h-18c-2.206 0-4 1.794-4 4v13.923l-4 1.6v-18.523c0-1.654 1.346-3 3-3h13c2.206 0 4-1.794 4-4v-12c0-2.206-1.794-4-4-4h-14c-2.206 0-4 1.794-4 4v10h2v-10c0-1.103.897-2 2-2h14c1.103 0 2 .897 2 2v12c0 1.103-.897 2-2 2h-13c-2.757 0-5 2.243-5 5v18.523l-4-1.6v-6.923c0-2.206-1.794-4-4-4h-18c-1.103 0-2-.897-2-2v-18c0-1.103.897-2 2-2h18c1.103 0 2 .897 2 2v16h2v-16c0-2.206-1.794-4-4-4h-18c-2.206 0-4 1.794-4 4v18c0 2.206 1.794 4 4 4h18c1.103 0 2 .897 2 2v6.123l-2.872-1.149-3.979.53c-6.926.924-12.149 6.89-12.149 13.878v9.618h52v-9.618c0-6.988-5.223-12.954-12.149-13.877l-3.979-.53-2.872 1.148v-13.123c0-1.103.897-2 2-2h18c1.103 0 2 .897 2 2v6c0 1.103-.897 2-2 2h-16v2h16c2.206 0 4-1.794 4-4v-6c0-2.206-1.794-4-4-4zm-36 18.477 6.453 2.581c-2.584 1.288-4.957 2.869-6.453 3.943zm7.847 9.523h2.306l1.667 10h-5.64zm2.372-2h-2.438l-.748-2.994c.647-.332 1.306-.642 1.968-.92.661.278 1.32.588 1.968.92zm1.328-4.942 6.453-2.581v6.524c-1.496-1.073-3.87-2.655-6.453-3.943zm-26.547 9.324c0-5.989 4.477-11.103 10.414-11.895l2.586-.345v10.938l1.625-1.299c.034-.028 2.478-1.966 5.594-3.781l.761 3.042-1.827 10.958h-9.153v-7.236l-2.105-4.211-1.789.895 1.894 3.788v6.764h-8zm48 0v7.618h-8v-6.764l1.895-3.789-1.789-.895-2.106 4.212v7.236h-9.153l-1.827-10.959.761-3.042c3.117 1.815 5.56 3.754 5.594 3.781l1.625 1.3v-10.938l2.586.345c5.937.792 10.414 5.906 10.414 11.895z" data-original="#000000" class="active-path" data-old_color="#000000" fill="#1F77ED"/><path d="m45 27v2h-2v2h2v2h2v-2h2v-2h-2v-2z" data-original="#000000" class="active-path" data-old_color="#000000" fill="#1F77ED"/><path d="m51 29h6v2h-6z" data-original="#000000" class="active-path" data-old_color="#000000" fill="#1F77ED"/></g></g> </svg>
