<?xml version="1.0"?>
<svg xmlns="http://www.w3.org/2000/svg" id="_x33_0" enable-background="new 0 0 64 64" height="512px" viewBox="0 0 64 64" width="512px" class=""><g><g><path d="m37 35h6v2h-6z" data-original="#000000" class="active-path" data-old_color="#000000" fill="#1F77ED"/><path d="m37 39h12v2h-12z" data-original="#000000" class="active-path" data-old_color="#000000" fill="#1F77ED"/><path d="m37 43h12v2h-12z" data-original="#000000" class="active-path" data-old_color="#000000" fill="#1F77ED"/><path d="m37 47h12v2h-12z" data-original="#000000" class="active-path" data-old_color="#000000" fill="#1F77ED"/><path d="m45 51h2v2h-2z" data-original="#000000" class="active-path" data-old_color="#000000" fill="#1F77ED"/><path d="m41 51h2v2h-2z" data-original="#000000" class="active-path" data-old_color="#000000" fill="#1F77ED"/><path d="m37 51h2v2h-2z" data-original="#000000" class="active-path" data-old_color="#000000" fill="#1F77ED"/><path d="m41 21h6v2h-6z" data-original="#000000" class="active-path" data-old_color="#000000" fill="#1F77ED"/><path d="m41 25h12v2h-12z" data-original="#000000" class="active-path" data-old_color="#000000" fill="#1F77ED"/><path d="m63 7.586-6.586-6.586h-13.414v14h-6v14h-1.99v-22.004c0-3.939-8.552-6-17-6s-17 2.061-17 6v50c0 3.939 8.552 6 17 6 8.445 0 16.993-2.06 16.999-5.996h17.991v-14h4v-14h6zm-6-3.172 2.586 2.586h-2.586zm-47.99 39.739v1.953c-.725-.16-1.396-.334-2-.521v-1.922c.636.18 1.299.346 2 .49zm2 .345c.653.096 1.319.181 2 .249v1.994c-.7-.073-1.364-.163-2-.263zm4 .408c.662.039 1.33.061 2 .074v1.999c-.686-.013-1.356-.037-2-.076zm4 .074c.67-.013 1.338-.035 2-.074v1.997c-.644.039-1.314.062-2 .076zm4-.233c.681-.068 1.347-.153 2-.249v1.981c-.636.1-1.3.189-2 .263zm4-.594c.701-.144 1.364-.31 2-.49v1.922c-.604.187-1.275.361-2 .521zm4-1.161c.762-.307 1.431-.651 2-1.027v1.031c0 .563-.711 1.213-2 1.824zm-22-16.839v1.953c-.725-.16-1.396-.334-2-.521v-1.922c.636.18 1.299.346 2 .49zm2 .345c.653.096 1.319.181 2 .249v1.994c-.7-.073-1.364-.163-2-.263zm4 .408c.662.039 1.33.061 2 .074v1.999c-.686-.013-1.356-.037-2-.076zm4 .074c.67-.013 1.338-.035 2-.074v1.997c-.644.039-1.314.062-2 .076zm4-.233c.681-.068 1.347-.153 2-.249v1.981c-.636.1-1.3.189-2 .263zm4-.594c.701-.144 1.364-.31 2-.49v1.922c-.604.187-1.275.361-2 .521zm4-1.161c.762-.307 1.431-.651 2-1.027v1.031c0 .563-.711 1.213-2 1.824zm-13-21.996c9.156 0 15 2.369 15 4s-5.844 4-15 4-15-2.369-15-4 5.844-4 15-4zm-15 6.969c3.018 1.996 9.027 3.031 15 3.031s11.982-1.035 15-3.031v11.031c0 1.631-5.844 4-15 4s-15-2.369-15-4zm0 14c.569.376 1.238.72 2 1.027v1.828c-1.289-.611-2-1.261-2-1.824zm0 4c3.018 1.996 9.027 3.031 15 3.031s11.982-1.035 15-3.031v11.031c0 1.631-5.844 4-15 4s-15-2.369-15-4zm0 14c.569.376 1.238.72 2 1.027v1.828c-1.289-.611-2-1.261-2-1.824zm15 19.031c-9.156 0-15-2.369-15-4v-11.031c3.018 1.996 9.027 3.031 15 3.031s11.982-1.035 15-3.031v11.031c0 1.63-5.844 4-15 4zm17-5.996v-24h9.99v6h6v18zm11.99-22.586 2.586 2.586h-2.586zm6 8.586v-5.414l-6.586-6.586h-7.414v-12h10v6h6v18zm-2-22.586 2.586 2.586h-2.586zm6 8.586v-5.414l-6.586-6.586h-5.414v-12h10v6h6v18z" data-original="#000000" class="active-path" data-old_color="#000000" fill="#1F77ED"/><path d="m47 7h6v2h-6z" data-original="#000000" class="active-path" data-old_color="#000000" fill="#1F77ED"/><path d="m47 11h12v2h-12z" data-original="#000000" class="active-path" data-old_color="#000000" fill="#1F77ED"/></g></g> </svg>
